%TF.GenerationSoftware,KiCad,Pcbnew,10.0.3*%
%TF.CreationDate,2026-06-23T02:48:48+05:30*%
%TF.ProjectId,codeBuzz,636f6465-4275-47a7-9a2e-6b696361645f,rev?*%
%TF.SameCoordinates,Original*%
%TF.FileFunction,Soldermask,Top*%
%TF.FilePolarity,Negative*%
%FSLAX46Y46*%
G04 Gerber Fmt 4.6, Leading zero omitted, Abs format (unit mm)*
G04 Created by KiCad (PCBNEW 10.0.3) date 2026-06-23 02:48:48*
%MOMM*%
%LPD*%
G01*
G04 APERTURE LIST*
G04 Aperture macros list*
%AMRoundRect*
0 Rectangle with rounded corners*
0 $1 Rounding radius*
0 $2 $3 $4 $5 $6 $7 $8 $9 X,Y pos of 4 corners*
0 Add a 4 corners polygon primitive as box body*
4,1,4,$2,$3,$4,$5,$6,$7,$8,$9,$2,$3,0*
0 Add four circle primitives for the rounded corners*
1,1,$1+$1,$2,$3*
1,1,$1+$1,$4,$5*
1,1,$1+$1,$6,$7*
1,1,$1+$1,$8,$9*
0 Add four rect primitives between the rounded corners*
20,1,$1+$1,$2,$3,$4,$5,0*
20,1,$1+$1,$4,$5,$6,$7,0*
20,1,$1+$1,$6,$7,$8,$9,0*
20,1,$1+$1,$8,$9,$2,$3,0*%
G04 Aperture macros list end*
%ADD10C,2.000000*%
%ADD11RoundRect,0.250000X-0.400000X-0.600000X0.400000X-0.600000X0.400000X0.600000X-0.400000X0.600000X0*%
%ADD12RoundRect,0.150000X-0.587500X-0.150000X0.587500X-0.150000X0.587500X0.150000X-0.587500X0.150000X0*%
%ADD13RoundRect,0.250000X-0.350000X-0.350000X0.350000X-0.350000X0.350000X0.350000X-0.350000X0.350000X0*%
%ADD14C,1.200000*%
%ADD15RoundRect,0.250000X0.475000X-0.250000X0.475000X0.250000X-0.475000X0.250000X-0.475000X-0.250000X0*%
%ADD16C,4.000000*%
%ADD17O,2.704000X1.004000*%
%ADD18O,1.004000X2.704000*%
%ADD19C,2.700000*%
%ADD20R,1.700000X1.700000*%
%ADD21C,1.700000*%
%ADD22RoundRect,0.250000X-1.000000X-0.650000X1.000000X-0.650000X1.000000X0.650000X-1.000000X0.650000X0*%
%ADD23C,1.600000*%
%ADD24C,0.900000*%
%ADD25RoundRect,0.260000X-0.540000X-0.390000X0.540000X-0.390000X0.540000X0.390000X-0.540000X0.390000X0*%
%ADD26RoundRect,0.058000X-0.464000X-0.174000X0.464000X-0.174000X0.464000X0.174000X-0.464000X0.174000X0*%
%ADD27RoundRect,0.058000X-0.174000X-0.464000X0.174000X-0.464000X0.174000X0.464000X-0.174000X0.464000X0*%
%ADD28RoundRect,0.102000X-1.225000X-1.225000X1.225000X-1.225000X1.225000X1.225000X-1.225000X1.225000X0*%
%ADD29RoundRect,0.250000X0.350000X0.350000X-0.350000X0.350000X-0.350000X-0.350000X0.350000X-0.350000X0*%
%ADD30C,1.400000*%
%ADD31R,2.000000X2.000000*%
%ADD32RoundRect,0.152400X-0.609600X1.063600X-0.609600X-1.063600X0.609600X-1.063600X0.609600X1.063600X0*%
%ADD33C,1.524000*%
%ADD34RoundRect,0.152400X0.609600X-1.063600X0.609600X1.063600X-0.609600X1.063600X-0.609600X-1.063600X0*%
%ADD35O,2.000000X1.800000*%
G04 APERTURE END LIST*
D10*
%TO.C,SW27*%
X206900000Y-200955000D03*
X213400000Y-200955000D03*
X206900000Y-205455000D03*
X213400000Y-205455000D03*
%TD*%
%TO.C,SW10*%
X231900000Y-180705000D03*
X238400000Y-180705000D03*
X231900000Y-185205000D03*
X238400000Y-185205000D03*
%TD*%
D11*
%TO.C,D3*%
X150050000Y-187955000D03*
X153550000Y-187955000D03*
%TD*%
%TO.C,D32*%
X120050000Y-187955000D03*
X123550000Y-187955000D03*
%TD*%
%TO.C,D24*%
X164400000Y-208455000D03*
X167900000Y-208455000D03*
%TD*%
D12*
%TO.C,Q1*%
X240362500Y-157030000D03*
X240362500Y-158930000D03*
X242237500Y-157980000D03*
%TD*%
D13*
%TO.C,C4*%
X227125000Y-150955000D03*
D14*
X229125000Y-150955000D03*
%TD*%
D15*
%TO.C,C5*%
X229500000Y-141280000D03*
X229500000Y-139380000D03*
%TD*%
D10*
%TO.C,SW26*%
X196900000Y-200955000D03*
X203400000Y-200955000D03*
X196900000Y-205455000D03*
X203400000Y-205455000D03*
%TD*%
%TO.C,SW4*%
X158150000Y-180705000D03*
X164650000Y-180705000D03*
X158150000Y-185205000D03*
X164650000Y-185205000D03*
%TD*%
D11*
%TO.C,D18*%
X213350000Y-197955000D03*
X216850000Y-197955000D03*
%TD*%
%TO.C,D29*%
X228400000Y-208455000D03*
X231900000Y-208455000D03*
%TD*%
%TO.C,D15*%
X169350000Y-197955000D03*
X172850000Y-197955000D03*
%TD*%
D10*
%TO.C,SW22*%
X142900000Y-200955000D03*
X149400000Y-200955000D03*
X142900000Y-205455000D03*
X149400000Y-205455000D03*
%TD*%
%TO.C,SW18*%
X212150000Y-190705000D03*
X218650000Y-190705000D03*
X212150000Y-195205000D03*
X218650000Y-195205000D03*
%TD*%
D11*
%TO.C,D35*%
X238400000Y-208455000D03*
X241900000Y-208455000D03*
%TD*%
%TO.C,D23*%
X154400000Y-208455000D03*
X157900000Y-208455000D03*
%TD*%
%TO.C,D19*%
X223350000Y-197955000D03*
X226850000Y-197955000D03*
%TD*%
D10*
%TO.C,SW35*%
X236900000Y-200955000D03*
X243400000Y-200955000D03*
X236900000Y-205455000D03*
X243400000Y-205455000D03*
%TD*%
D11*
%TO.C,D8*%
X214050000Y-187955000D03*
X217550000Y-187955000D03*
%TD*%
%TO.C,D6*%
X194050000Y-187955000D03*
X197550000Y-187955000D03*
%TD*%
D10*
%TO.C,SW9*%
X221900000Y-180705000D03*
X228400000Y-180705000D03*
X221900000Y-185205000D03*
X228400000Y-185205000D03*
%TD*%
D16*
%TO.C,GPS1*%
X242035000Y-139410000D03*
D17*
X234885000Y-134190000D03*
X234885000Y-136730000D03*
X234885000Y-139270000D03*
X234885000Y-141810000D03*
X234885000Y-144350000D03*
X234885000Y-146890000D03*
X250385000Y-146890000D03*
X250385000Y-144350000D03*
X250385000Y-141810000D03*
X250385000Y-139270000D03*
X250385000Y-136730000D03*
X250385000Y-134190000D03*
D18*
X238825000Y-147790000D03*
X240465000Y-147790000D03*
X244805000Y-147790000D03*
X246445000Y-147790000D03*
%TD*%
D10*
%TO.C,SW29*%
X226900000Y-200955000D03*
X233400000Y-200955000D03*
X226900000Y-205455000D03*
X233400000Y-205455000D03*
%TD*%
D11*
%TO.C,D5*%
X170050000Y-187955000D03*
X173550000Y-187955000D03*
%TD*%
D10*
%TO.C,SW31*%
X242150000Y-190705000D03*
X248650000Y-190705000D03*
X242150000Y-195205000D03*
X248650000Y-195205000D03*
%TD*%
D11*
%TO.C,D7*%
X204050000Y-187955000D03*
X207550000Y-187955000D03*
%TD*%
D19*
%TO.C,REF\u002A\u002A*%
X115000000Y-112000000D03*
%TD*%
D20*
%TO.C,U5*%
X112620000Y-124600000D03*
D21*
X115160000Y-124600000D03*
X117700000Y-124600000D03*
X120240000Y-124600000D03*
%TD*%
D11*
%TO.C,D21*%
X134400000Y-208455000D03*
X137900000Y-208455000D03*
%TD*%
D19*
%TO.C,REF\u002A\u002A*%
X115000000Y-215000000D03*
%TD*%
D10*
%TO.C,SW5*%
X168150000Y-180705000D03*
X174650000Y-180705000D03*
X168150000Y-185205000D03*
X174650000Y-185205000D03*
%TD*%
D11*
%TO.C,D22*%
X144400000Y-208455000D03*
X147900000Y-208455000D03*
%TD*%
D22*
%TO.C,D36*%
X124600000Y-124800000D03*
X128600000Y-124800000D03*
%TD*%
D11*
%TO.C,D17*%
X203350000Y-197955000D03*
X206850000Y-197955000D03*
%TD*%
D23*
%TO.C,R1*%
X120720000Y-154770000D03*
X135960000Y-154770000D03*
%TD*%
%TO.C,U2*%
X171090000Y-149990000D03*
X171090000Y-147450000D03*
X168550000Y-149990000D03*
X168550000Y-147450000D03*
X166010000Y-149990000D03*
X166010000Y-147450000D03*
X163470000Y-149990000D03*
X163470000Y-147450000D03*
X160930000Y-149990000D03*
X160930000Y-147450000D03*
X158390000Y-149990000D03*
X158390000Y-147450000D03*
X155850000Y-149990000D03*
X155850000Y-147450000D03*
X153310000Y-149990000D03*
X153310000Y-147450000D03*
X150770000Y-149990000D03*
X150770000Y-147450000D03*
X148230000Y-149990000D03*
X148230000Y-147450000D03*
X171090000Y-165450000D03*
X168550000Y-165450000D03*
X166010000Y-165450000D03*
X163470000Y-165450000D03*
X160930000Y-165450000D03*
X158390000Y-165450000D03*
X155850000Y-165450000D03*
X153310000Y-165450000D03*
X150770000Y-165450000D03*
X148230000Y-165450000D03*
%TD*%
D10*
%TO.C,SW20*%
X232150000Y-190705000D03*
X238650000Y-190705000D03*
X232150000Y-195205000D03*
X238650000Y-195205000D03*
%TD*%
%TO.C,SW28*%
X216900000Y-200955000D03*
X223400000Y-200955000D03*
X216900000Y-205455000D03*
X223400000Y-205455000D03*
%TD*%
D24*
%TO.C,U6*%
X181200000Y-189805000D03*
X185600000Y-189805000D03*
D25*
X177500000Y-184405000D03*
X177500000Y-187205000D03*
X177500000Y-190905000D03*
X189300000Y-184405000D03*
X189300000Y-187205000D03*
X189300000Y-190905000D03*
%TD*%
D19*
%TO.C,REF\u002A\u002A*%
X184850000Y-215000000D03*
%TD*%
D10*
%TO.C,SW25*%
X185455333Y-200950000D03*
X191955333Y-200950000D03*
X185455333Y-205450000D03*
X191955333Y-205450000D03*
%TD*%
%TO.C,SW1*%
X128150000Y-180705000D03*
X134650000Y-180705000D03*
X128150000Y-185205000D03*
X134650000Y-185205000D03*
%TD*%
D11*
%TO.C,D34*%
X244050000Y-187955000D03*
X247550000Y-187955000D03*
%TD*%
D10*
%TO.C,SW30*%
X118150000Y-190705000D03*
X124650000Y-190705000D03*
X118150000Y-195205000D03*
X124650000Y-195205000D03*
%TD*%
D11*
%TO.C,D31*%
X243350000Y-197955000D03*
X246850000Y-197955000D03*
%TD*%
%TO.C,D16*%
X193350000Y-197955000D03*
X196850000Y-197955000D03*
%TD*%
D26*
%TO.C,U7*%
X167785000Y-171870000D03*
X167785000Y-172370000D03*
X167785000Y-172870000D03*
X167785000Y-173370000D03*
X167785000Y-173870000D03*
X167785000Y-174370000D03*
D27*
X168470000Y-175055000D03*
X168970000Y-175055000D03*
X169470000Y-175055000D03*
X169970000Y-175055000D03*
X170470000Y-175055000D03*
X170970000Y-175055000D03*
D26*
X171655000Y-174370000D03*
X171655000Y-173870000D03*
X171655000Y-173370000D03*
X171655000Y-172870000D03*
X171655000Y-172370000D03*
X171655000Y-171870000D03*
D27*
X170970000Y-171185000D03*
X170470000Y-171185000D03*
X169970000Y-171185000D03*
X169470000Y-171185000D03*
X168970000Y-171185000D03*
X168470000Y-171185000D03*
D28*
X169720000Y-173120000D03*
%TD*%
D29*
%TO.C,C2*%
X176147600Y-170605000D03*
D14*
X174147600Y-170605000D03*
%TD*%
D19*
%TO.C,REF\u002A\u002A*%
X255000000Y-215000000D03*
%TD*%
D10*
%TO.C,SW7*%
X201900000Y-180705000D03*
X208400000Y-180705000D03*
X201900000Y-185205000D03*
X208400000Y-185205000D03*
%TD*%
D19*
%TO.C,REF\u002A\u002A*%
X254700000Y-112000000D03*
%TD*%
D10*
%TO.C,SW15*%
X168150000Y-190705000D03*
X174650000Y-190705000D03*
X168150000Y-195205000D03*
X174650000Y-195205000D03*
%TD*%
%TO.C,SW33*%
X122900000Y-200955000D03*
X129400000Y-200955000D03*
X122900000Y-205455000D03*
X129400000Y-205455000D03*
%TD*%
%TO.C,SW19*%
X222150000Y-190705000D03*
X228650000Y-190705000D03*
X222150000Y-195205000D03*
X228650000Y-195205000D03*
%TD*%
%TO.C,SW23*%
X152900000Y-200955000D03*
X159400000Y-200955000D03*
X152900000Y-205455000D03*
X159400000Y-205455000D03*
%TD*%
%TO.C,SW14*%
X158150000Y-190705000D03*
X164650000Y-190705000D03*
X158150000Y-195205000D03*
X164650000Y-195205000D03*
%TD*%
%TO.C,SW2*%
X138150000Y-180705000D03*
X144650000Y-180705000D03*
X138150000Y-185205000D03*
X144650000Y-185205000D03*
%TD*%
D11*
%TO.C,D2*%
X140050000Y-187955000D03*
X143550000Y-187955000D03*
%TD*%
%TO.C,D14*%
X159750000Y-197805000D03*
X163250000Y-197805000D03*
%TD*%
D10*
%TO.C,SW13*%
X148150000Y-190705000D03*
X154650000Y-190705000D03*
X148150000Y-195205000D03*
X154650000Y-195205000D03*
%TD*%
D11*
%TO.C,D12*%
X139750000Y-197805000D03*
X143250000Y-197805000D03*
%TD*%
D30*
%TO.C,R4*%
X132800000Y-133690000D03*
X132800000Y-141310000D03*
%TD*%
D10*
%TO.C,SW16*%
X192150000Y-190705000D03*
X198650000Y-190705000D03*
X192150000Y-195205000D03*
X198650000Y-195205000D03*
%TD*%
%TO.C,SW34*%
X241900000Y-180705000D03*
X248400000Y-180705000D03*
X241900000Y-185205000D03*
X248400000Y-185205000D03*
%TD*%
%TO.C,SW6*%
X192150000Y-180705000D03*
X198650000Y-180705000D03*
X192150000Y-185205000D03*
X198650000Y-185205000D03*
%TD*%
D11*
%TO.C,D10*%
X234050000Y-187955000D03*
X237550000Y-187955000D03*
%TD*%
%TO.C,D11*%
X129750000Y-197805000D03*
X133250000Y-197805000D03*
%TD*%
%TO.C,D1*%
X130050000Y-187955000D03*
X133550000Y-187955000D03*
%TD*%
D23*
%TO.C,R2*%
X136020000Y-158800000D03*
X120780000Y-158800000D03*
%TD*%
D11*
%TO.C,D9*%
X224050000Y-187955000D03*
X227550000Y-187955000D03*
%TD*%
D10*
%TO.C,SW11*%
X128150000Y-190705000D03*
X134650000Y-190705000D03*
X128150000Y-195205000D03*
X134650000Y-195205000D03*
%TD*%
%TO.C,SW12*%
X138150000Y-190705000D03*
X144650000Y-190705000D03*
X138150000Y-195205000D03*
X144650000Y-195205000D03*
%TD*%
D11*
%TO.C,D28*%
X218400000Y-208455000D03*
X221900000Y-208455000D03*
%TD*%
D10*
%TO.C,SW8*%
X211900000Y-180705000D03*
X218400000Y-180705000D03*
X211900000Y-185205000D03*
X218400000Y-185205000D03*
%TD*%
D31*
%TO.C,BZ1*%
X247325000Y-161680000D03*
D10*
X254925000Y-161680000D03*
%TD*%
D19*
%TO.C,REF\u002A\u002A*%
X184850000Y-112000000D03*
%TD*%
D10*
%TO.C,SW32*%
X118150000Y-180705000D03*
X124650000Y-180705000D03*
X118150000Y-185205000D03*
X124650000Y-185205000D03*
%TD*%
%TO.C,SW24*%
X162900000Y-200955000D03*
X169400000Y-200955000D03*
X162900000Y-205455000D03*
X169400000Y-205455000D03*
%TD*%
D11*
%TO.C,D27*%
X208400000Y-208455000D03*
X211900000Y-208455000D03*
%TD*%
D32*
%TO.C,U1*%
X112198500Y-148755000D03*
D33*
X112198500Y-147920000D03*
D32*
X114738500Y-148755000D03*
D33*
X114738500Y-147920000D03*
D32*
X117278500Y-148755000D03*
D33*
X117278500Y-147920000D03*
D32*
X119818500Y-148755000D03*
D33*
X119818500Y-147920000D03*
D32*
X122358500Y-148755000D03*
D33*
X122358500Y-147920000D03*
D32*
X124898500Y-148755000D03*
D33*
X124898500Y-147920000D03*
D32*
X127438500Y-148755000D03*
D33*
X127438500Y-147920000D03*
X127438500Y-132680000D03*
D34*
X127438500Y-131845000D03*
D33*
X124898500Y-132680000D03*
D34*
X124898500Y-131845000D03*
D33*
X122358500Y-132680000D03*
D34*
X122358500Y-131845000D03*
D33*
X119818500Y-132680000D03*
D34*
X119818500Y-131845000D03*
D33*
X117278500Y-132680000D03*
D34*
X117278500Y-131845000D03*
D33*
X114738500Y-132680000D03*
D34*
X114738500Y-131845000D03*
D33*
X112198500Y-132680000D03*
D34*
X112198500Y-131845000D03*
%TD*%
D11*
%TO.C,D33*%
X124400000Y-208455000D03*
X127900000Y-208455000D03*
%TD*%
%TO.C,D26*%
X198400000Y-208455000D03*
X201900000Y-208455000D03*
%TD*%
%TO.C,D30*%
X119750000Y-197805000D03*
X123250000Y-197805000D03*
%TD*%
%TO.C,D20*%
X233350000Y-197955000D03*
X236850000Y-197955000D03*
%TD*%
D23*
%TO.C,R5*%
X149130000Y-172255000D03*
X164370000Y-172255000D03*
%TD*%
D10*
%TO.C,SW3*%
X148150000Y-180705000D03*
X154650000Y-180705000D03*
X148150000Y-185205000D03*
X154650000Y-185205000D03*
%TD*%
%TO.C,SW25*%
X175142034Y-200940287D03*
X181642034Y-200940287D03*
X175142034Y-205440287D03*
X181642034Y-205440287D03*
%TD*%
D11*
%TO.C,D13*%
X149750000Y-197805000D03*
X153250000Y-197805000D03*
%TD*%
D10*
%TO.C,SW21*%
X132900000Y-200955000D03*
X139400000Y-200955000D03*
X132900000Y-205455000D03*
X139400000Y-205455000D03*
%TD*%
D35*
%TO.C,u3*%
X143175000Y-127910000D03*
X143175000Y-130450000D03*
X143175000Y-132990000D03*
X143175000Y-135530000D03*
X143175000Y-138070000D03*
X143175000Y-140610000D03*
X143175000Y-143150000D03*
X143175000Y-145690000D03*
X143175000Y-148230000D03*
X143175000Y-150770000D03*
X143175000Y-153310000D03*
X143175000Y-155850000D03*
X143175000Y-158390000D03*
X143175000Y-160930000D03*
%TD*%
D11*
%TO.C,D25*%
X182020000Y-208720000D03*
X185520000Y-208720000D03*
%TD*%
D10*
%TO.C,SW17*%
X202150000Y-190705000D03*
X208650000Y-190705000D03*
X202150000Y-195205000D03*
X208650000Y-195205000D03*
%TD*%
D11*
%TO.C,D4*%
X160050000Y-187955000D03*
X163550000Y-187955000D03*
%TD*%
M02*
