%TF.GenerationSoftware,KiCad,Pcbnew,10.0.3*%
%TF.CreationDate,2026-06-23T02:48:48+05:30*%
%TF.ProjectId,codeBuzz,636f6465-4275-47a7-9a2e-6b696361645f,rev?*%
%TF.SameCoordinates,Original*%
%TF.FileFunction,Copper,L3,Inr*%
%TF.FilePolarity,Positive*%
%FSLAX46Y46*%
G04 Gerber Fmt 4.6, Leading zero omitted, Abs format (unit mm)*
G04 Created by KiCad (PCBNEW 10.0.3) date 2026-06-23 02:48:48*
%MOMM*%
%LPD*%
G01*
G04 APERTURE LIST*
G04 Aperture macros list*
%AMRoundRect*
0 Rectangle with rounded corners*
0 $1 Rounding radius*
0 $2 $3 $4 $5 $6 $7 $8 $9 X,Y pos of 4 corners*
0 Add a 4 corners polygon primitive as box body*
4,1,4,$2,$3,$4,$5,$6,$7,$8,$9,$2,$3,0*
0 Add four circle primitives for the rounded corners*
1,1,$1+$1,$2,$3*
1,1,$1+$1,$4,$5*
1,1,$1+$1,$6,$7*
1,1,$1+$1,$8,$9*
0 Add four rect primitives between the rounded corners*
20,1,$1+$1,$2,$3,$4,$5,0*
20,1,$1+$1,$4,$5,$6,$7,0*
20,1,$1+$1,$6,$7,$8,$9,0*
20,1,$1+$1,$8,$9,$2,$3,0*%
G04 Aperture macros list end*
%TA.AperFunction,ComponentPad*%
%ADD10C,2.000000*%
%TD*%
%TA.AperFunction,ComponentPad*%
%ADD11RoundRect,0.250000X-0.350000X-0.350000X0.350000X-0.350000X0.350000X0.350000X-0.350000X0.350000X0*%
%TD*%
%TA.AperFunction,ComponentPad*%
%ADD12C,1.200000*%
%TD*%
%TA.AperFunction,ComponentPad*%
%ADD13R,1.700000X1.700000*%
%TD*%
%TA.AperFunction,ComponentPad*%
%ADD14C,1.700000*%
%TD*%
%TA.AperFunction,ComponentPad*%
%ADD15C,1.600000*%
%TD*%
%TA.AperFunction,ComponentPad*%
%ADD16RoundRect,0.250000X0.350000X0.350000X-0.350000X0.350000X-0.350000X-0.350000X0.350000X-0.350000X0*%
%TD*%
%TA.AperFunction,ComponentPad*%
%ADD17C,1.400000*%
%TD*%
%TA.AperFunction,ComponentPad*%
%ADD18R,2.000000X2.000000*%
%TD*%
%TA.AperFunction,ComponentPad*%
%ADD19C,1.524000*%
%TD*%
%TA.AperFunction,ComponentPad*%
%ADD20O,2.000000X1.800000*%
%TD*%
%TA.AperFunction,ViaPad*%
%ADD21C,0.600000*%
%TD*%
%TA.AperFunction,Conductor*%
%ADD22C,0.200000*%
%TD*%
G04 APERTURE END LIST*
D10*
%TO.N,Col 3*%
%TO.C,SW27*%
X206900000Y-200955000D03*
X213400000Y-200955000D03*
%TO.N,Net-(D27-A)*%
X206900000Y-205455000D03*
X213400000Y-205455000D03*
%TD*%
%TO.N,Col 3*%
%TO.C,SW10*%
X231900000Y-180705000D03*
X238400000Y-180705000D03*
%TO.N,Net-(D10-A)*%
X231900000Y-185205000D03*
X238400000Y-185205000D03*
%TD*%
D11*
%TO.N,3.3V*%
%TO.C,C4*%
X227125000Y-150955000D03*
D12*
%TO.N,GND*%
X229125000Y-150955000D03*
%TD*%
D10*
%TO.N,Col 3*%
%TO.C,SW26*%
X196900000Y-200955000D03*
X203400000Y-200955000D03*
%TO.N,Net-(D26-A)*%
X196900000Y-205455000D03*
X203400000Y-205455000D03*
%TD*%
%TO.N,Col 4*%
%TO.C,SW4*%
X158150000Y-180705000D03*
X164650000Y-180705000D03*
%TO.N,Net-(D4-A)*%
X158150000Y-185205000D03*
X164650000Y-185205000D03*
%TD*%
%TO.N,Col 1*%
%TO.C,SW22*%
X142900000Y-200955000D03*
X149400000Y-200955000D03*
%TO.N,Net-(D22-A)*%
X142900000Y-205455000D03*
X149400000Y-205455000D03*
%TD*%
%TO.N,Col 4*%
%TO.C,SW18*%
X212150000Y-190705000D03*
X218650000Y-190705000D03*
%TO.N,Net-(D18-A)*%
X212150000Y-195205000D03*
X218650000Y-195205000D03*
%TD*%
%TO.N,Col 7*%
%TO.C,SW35*%
X236900000Y-200955000D03*
X243400000Y-200955000D03*
%TO.N,Net-(D35-A)*%
X236900000Y-205455000D03*
X243400000Y-205455000D03*
%TD*%
%TO.N,Col 2*%
%TO.C,SW9*%
X221900000Y-180705000D03*
X228400000Y-180705000D03*
%TO.N,Net-(D9-A)*%
X221900000Y-185205000D03*
X228400000Y-185205000D03*
%TD*%
%TO.N,Col 4*%
%TO.C,SW29*%
X226900000Y-200955000D03*
X233400000Y-200955000D03*
%TO.N,Net-(D29-A)*%
X226900000Y-205455000D03*
X233400000Y-205455000D03*
%TD*%
%TO.N,Col 5*%
%TO.C,SW31*%
X242150000Y-190705000D03*
X248650000Y-190705000D03*
%TO.N,Net-(D31-A)*%
X242150000Y-195205000D03*
X248650000Y-195205000D03*
%TD*%
D13*
%TO.N,Net-(BT1-+)*%
%TO.C,U5*%
X112620000Y-124600000D03*
D14*
%TO.N,Net-(BT1--)*%
X115160000Y-124600000D03*
%TO.N,5V*%
X117700000Y-124600000D03*
%TO.N,GND*%
X120240000Y-124600000D03*
%TD*%
D10*
%TO.N,Col 5*%
%TO.C,SW5*%
X168150000Y-180705000D03*
X174650000Y-180705000D03*
%TO.N,Net-(D5-A)*%
X168150000Y-185205000D03*
X174650000Y-185205000D03*
%TD*%
D15*
%TO.N,3.3V*%
%TO.C,R1*%
X120720000Y-154770000D03*
%TO.N,I2c_Sda*%
X135960000Y-154770000D03*
%TD*%
%TO.N,3.3V*%
%TO.C,U2*%
X171090000Y-149990000D03*
%TO.N,GND*%
X171090000Y-147450000D03*
%TO.N,unconnected-(U2-ITB-Pad3)*%
X168550000Y-149990000D03*
%TO.N,unconnected-(U2-ITA-Pad4)*%
X168550000Y-147450000D03*
%TO.N,JOY_UP*%
X166010000Y-149990000D03*
%TO.N,unconnected-(U2-A0-Pad6)*%
X166010000Y-147450000D03*
%TO.N,JOY_DOWN*%
X163470000Y-149990000D03*
%TO.N,unconnected-(U2-A1-Pad8)*%
X163470000Y-147450000D03*
%TO.N,JOY_LEFT*%
X160930000Y-149990000D03*
%TO.N,unconnected-(U2-A2-Pad10)*%
X160930000Y-147450000D03*
%TO.N,JOY_RIGHT*%
X158390000Y-149990000D03*
%TO.N,unconnected-(U2-A3-Pad12)*%
X158390000Y-147450000D03*
%TO.N,JOY_PRESS*%
X155850000Y-149990000D03*
%TO.N,unconnected-(U2-A4-Pad14)*%
X155850000Y-147450000D03*
%TO.N,B7*%
X153310000Y-149990000D03*
%TO.N,unconnected-(U2-A5-Pad16)*%
X153310000Y-147450000D03*
%TO.N,unconnected-(U2-B6-Pad17)*%
X150770000Y-149990000D03*
%TO.N,unconnected-(U2-A6-Pad18)*%
X150770000Y-147450000D03*
%TO.N,unconnected-(U2-B7-Pad19)*%
X148230000Y-149990000D03*
%TO.N,unconnected-(U2-A7-Pad20)*%
X148230000Y-147450000D03*
%TO.N,GND*%
X171090000Y-165450000D03*
X168550000Y-165450000D03*
X166010000Y-165450000D03*
%TO.N,unconnected-(U2-RST-Pad24)*%
X163470000Y-165450000D03*
%TO.N,unconnected-(U2-NC{slash}SO-Pad25)*%
X160930000Y-165450000D03*
%TO.N,unconnected-(U2-NC{slash}CS-Pad26)*%
X158390000Y-165450000D03*
%TO.N,I2c_Sda*%
X155850000Y-165450000D03*
%TO.N,SCL_SCK*%
X153310000Y-165450000D03*
%TO.N,GND*%
X150770000Y-165450000D03*
%TO.N,3.3V*%
X148230000Y-165450000D03*
%TD*%
D10*
%TO.N,Col 6*%
%TO.C,SW20*%
X232150000Y-190705000D03*
X238650000Y-190705000D03*
%TO.N,Net-(D20-A)*%
X232150000Y-195205000D03*
X238650000Y-195205000D03*
%TD*%
%TO.N,Col 4*%
%TO.C,SW28*%
X216900000Y-200955000D03*
X223400000Y-200955000D03*
%TO.N,Net-(D28-A)*%
X216900000Y-205455000D03*
X223400000Y-205455000D03*
%TD*%
%TO.N,Col 2*%
%TO.C,SW25*%
X185455333Y-200950000D03*
%TO.N,N/C*%
X191955333Y-200950000D03*
%TO.N,Net-(D25-A)*%
X185455333Y-205450000D03*
%TO.N,N/C*%
X191955333Y-205450000D03*
%TD*%
%TO.N,Col 1*%
%TO.C,SW1*%
X128150000Y-180705000D03*
X134650000Y-180705000D03*
%TO.N,Net-(D1-A)*%
X128150000Y-185205000D03*
X134650000Y-185205000D03*
%TD*%
%TO.N,Col 5*%
%TO.C,SW30*%
X118150000Y-190705000D03*
X124650000Y-190705000D03*
%TO.N,Net-(D30-A)*%
X118150000Y-195205000D03*
X124650000Y-195205000D03*
%TD*%
D16*
%TO.N,GND*%
%TO.C,C2*%
X176147600Y-170605000D03*
D12*
%TO.N,3.3V*%
X174147600Y-170605000D03*
%TD*%
D10*
%TO.N,Col 7*%
%TO.C,SW7*%
X201900000Y-180705000D03*
X208400000Y-180705000D03*
%TO.N,Net-(D7-A)*%
X201900000Y-185205000D03*
X208400000Y-185205000D03*
%TD*%
%TO.N,Col 1*%
%TO.C,SW15*%
X168150000Y-190705000D03*
X174650000Y-190705000D03*
%TO.N,Net-(D15-A)*%
X168150000Y-195205000D03*
X174650000Y-195205000D03*
%TD*%
%TO.N,Col 6*%
%TO.C,SW33*%
X122900000Y-200955000D03*
X129400000Y-200955000D03*
%TO.N,Net-(D33-A)*%
X122900000Y-205455000D03*
X129400000Y-205455000D03*
%TD*%
%TO.N,Col 5*%
%TO.C,SW19*%
X222150000Y-190705000D03*
X228650000Y-190705000D03*
%TO.N,Net-(D19-A)*%
X222150000Y-195205000D03*
X228650000Y-195205000D03*
%TD*%
%TO.N,Col 1*%
%TO.C,SW23*%
X152900000Y-200955000D03*
X159400000Y-200955000D03*
%TO.N,Net-(D23-A)*%
X152900000Y-205455000D03*
X159400000Y-205455000D03*
%TD*%
%TO.N,Col 7*%
%TO.C,SW14*%
X158150000Y-190705000D03*
X164650000Y-190705000D03*
%TO.N,Net-(D14-A)*%
X158150000Y-195205000D03*
X164650000Y-195205000D03*
%TD*%
%TO.N,Col 2*%
%TO.C,SW2*%
X138150000Y-180705000D03*
X144650000Y-180705000D03*
%TO.N,Net-(D2-A)*%
X138150000Y-185205000D03*
X144650000Y-185205000D03*
%TD*%
%TO.N,Col 6*%
%TO.C,SW13*%
X148150000Y-190705000D03*
X154650000Y-190705000D03*
%TO.N,Net-(D13-A)*%
X148150000Y-195205000D03*
X154650000Y-195205000D03*
%TD*%
D17*
%TO.N,D1*%
%TO.C,R4*%
X132800000Y-133690000D03*
%TO.N,Net-(Q1-E)*%
X132800000Y-141310000D03*
%TD*%
D10*
%TO.N,Col 2*%
%TO.C,SW16*%
X192150000Y-190705000D03*
X198650000Y-190705000D03*
%TO.N,Net-(D16-A)*%
X192150000Y-195205000D03*
X198650000Y-195205000D03*
%TD*%
%TO.N,Col 7*%
%TO.C,SW34*%
X241900000Y-180705000D03*
X248400000Y-180705000D03*
%TO.N,Net-(D34-A)*%
X241900000Y-185205000D03*
X248400000Y-185205000D03*
%TD*%
%TO.N,Col 6*%
%TO.C,SW6*%
X192150000Y-180705000D03*
X198650000Y-180705000D03*
%TO.N,Net-(D6-A)*%
X192150000Y-185205000D03*
X198650000Y-185205000D03*
%TD*%
D15*
%TO.N,SCL_SCK*%
%TO.C,R2*%
X136020000Y-158800000D03*
%TO.N,3.3V*%
X120780000Y-158800000D03*
%TD*%
D10*
%TO.N,Col 4*%
%TO.C,SW11*%
X128150000Y-190705000D03*
X134650000Y-190705000D03*
%TO.N,Net-(D11-A)*%
X128150000Y-195205000D03*
X134650000Y-195205000D03*
%TD*%
%TO.N,Col 5*%
%TO.C,SW12*%
X138150000Y-190705000D03*
X144650000Y-190705000D03*
%TO.N,Net-(D12-A)*%
X138150000Y-195205000D03*
X144650000Y-195205000D03*
%TD*%
%TO.N,Col 1*%
%TO.C,SW8*%
X211900000Y-180705000D03*
X218400000Y-180705000D03*
%TO.N,Net-(D8-A)*%
X211900000Y-185205000D03*
X218400000Y-185205000D03*
%TD*%
D18*
%TO.N,5V*%
%TO.C,BZ1*%
X247325000Y-161680000D03*
D10*
%TO.N,Net-(BZ1--)*%
X254925000Y-161680000D03*
%TD*%
%TO.N,Col 6*%
%TO.C,SW32*%
X118150000Y-180705000D03*
X124650000Y-180705000D03*
%TO.N,Net-(D32-A)*%
X118150000Y-185205000D03*
X124650000Y-185205000D03*
%TD*%
%TO.N,Col 2*%
%TO.C,SW24*%
X162900000Y-200955000D03*
X169400000Y-200955000D03*
%TO.N,Net-(D24-A)*%
X162900000Y-205455000D03*
X169400000Y-205455000D03*
%TD*%
D19*
%TO.N,D0*%
%TO.C,U1*%
X112198500Y-147920000D03*
%TO.N,D1*%
X114738500Y-147920000D03*
%TO.N,D2*%
X117278500Y-147920000D03*
%TO.N,D3*%
X119818500Y-147920000D03*
%TO.N,I2c_Sda*%
X122358500Y-147920000D03*
%TO.N,SCL_SCK*%
X124898500Y-147920000D03*
%TO.N,TX*%
X127438500Y-147920000D03*
%TO.N,RX*%
X127438500Y-132680000D03*
%TO.N,D8*%
X124898500Y-132680000D03*
%TO.N,D9*%
X122358500Y-132680000D03*
%TO.N,D10*%
X119818500Y-132680000D03*
%TO.N,3.3V*%
X117278500Y-132680000D03*
%TO.N,GND*%
X114738500Y-132680000D03*
%TO.N,VBUS*%
X112198500Y-132680000D03*
%TD*%
D15*
%TO.N,3.3V*%
%TO.C,R5*%
X149130000Y-172255000D03*
%TO.N,D9*%
X164370000Y-172255000D03*
%TD*%
D10*
%TO.N,Col 3*%
%TO.C,SW3*%
X148150000Y-180705000D03*
X154650000Y-180705000D03*
%TO.N,Net-(D3-A)*%
X148150000Y-185205000D03*
X154650000Y-185205000D03*
%TD*%
%TO.N,Col 2*%
%TO.C,SW25*%
X175142034Y-200940287D03*
X181642034Y-200940287D03*
%TO.N,Net-(D25-A)*%
X175142034Y-205440287D03*
X181642034Y-205440287D03*
%TD*%
%TO.N,Col 7*%
%TO.C,SW21*%
X132900000Y-200955000D03*
X139400000Y-200955000D03*
%TO.N,Net-(D21-A)*%
X132900000Y-205455000D03*
X139400000Y-205455000D03*
%TD*%
D20*
%TO.N,5V*%
%TO.C,u3*%
X143175000Y-127910000D03*
%TO.N,GND*%
X143175000Y-130450000D03*
%TO.N,D8*%
X143175000Y-132990000D03*
%TO.N,D10*%
X143175000Y-135530000D03*
%TO.N,D2*%
X143175000Y-138070000D03*
%TO.N,D0*%
X143175000Y-140610000D03*
%TO.N,D3*%
X143175000Y-143150000D03*
%TO.N,5V*%
X143175000Y-145690000D03*
%TO.N,N/C*%
X143175000Y-148230000D03*
X143175000Y-150770000D03*
X143175000Y-153310000D03*
X143175000Y-155850000D03*
X143175000Y-158390000D03*
X143175000Y-160930000D03*
%TD*%
D10*
%TO.N,Col 3*%
%TO.C,SW17*%
X202150000Y-190705000D03*
X208650000Y-190705000D03*
%TO.N,Net-(D17-A)*%
X202150000Y-195205000D03*
X208650000Y-195205000D03*
%TD*%
D21*
%TO.N,Col 3*%
X170834264Y-177345736D03*
%TO.N,Row 1*%
X166410000Y-189280000D03*
X200040000Y-187955000D03*
X160052500Y-187952500D03*
X168730000Y-177730000D03*
X170230000Y-187920000D03*
X150112500Y-187952500D03*
X194050000Y-187955000D03*
%TO.N,GND*%
X226600000Y-141330000D03*
%TO.N,3.3V*%
X119450000Y-155910000D03*
X158980000Y-154780000D03*
X170295000Y-169645000D03*
%TO.N,Col 4*%
X171434264Y-176700000D03*
%TO.N,Row 3*%
X165935000Y-174385000D03*
X130925000Y-208455000D03*
X180955735Y-193984265D03*
X199780000Y-197840000D03*
X201860000Y-198550000D03*
%TO.N,Col 1*%
X169500000Y-176860000D03*
%TO.N,Col 7*%
X183665000Y-195845000D03*
X199830000Y-187130000D03*
%TO.N,Row 2*%
X134870000Y-198130000D03*
X129740000Y-197880000D03*
%TO.N,Col 2*%
X164580000Y-176200000D03*
%TO.N,Col 5*%
X173690000Y-174800000D03*
%TO.N,JOY_RIGHT*%
X179270000Y-190240000D03*
%TD*%
%TO.N,Col 3*%
D22*
X170834264Y-177345736D02*
X173350000Y-179861471D01*
X181113269Y-202250000D02*
X195605000Y-202250000D01*
X217350000Y-197005000D02*
X217350000Y-190166522D01*
X173350000Y-191243478D02*
X180342034Y-198235512D01*
X213400000Y-200955000D02*
X217350000Y-197005000D01*
X159755000Y-175600000D02*
X169088529Y-175600000D01*
X231061522Y-180705000D02*
X231900000Y-180705000D01*
X180342034Y-198235512D02*
X180342034Y-201478765D01*
X173350000Y-179861471D02*
X173350000Y-191243478D01*
X154650000Y-180705000D02*
X159755000Y-175600000D01*
X217350000Y-190166522D02*
X221011522Y-186505000D01*
X195605000Y-202250000D02*
X196900000Y-200955000D01*
X225261522Y-186505000D02*
X231061522Y-180705000D01*
X169088529Y-175600000D02*
X170834264Y-177345736D01*
X180342034Y-201478765D02*
X181113269Y-202250000D01*
X221011522Y-186505000D02*
X225261522Y-186505000D01*
%TO.N,Row 1*%
X150112500Y-187952500D02*
X150100000Y-187940000D01*
X196060000Y-187960000D02*
X196055000Y-187955000D01*
X166410000Y-180050000D02*
X168730000Y-177730000D01*
X196495000Y-187955000D02*
X196490000Y-187960000D01*
X160052500Y-187952500D02*
X150112500Y-187952500D01*
X196055000Y-187955000D02*
X194050000Y-187955000D01*
X196490000Y-187960000D02*
X196060000Y-187960000D01*
X200040000Y-187955000D02*
X196495000Y-187955000D01*
X166410000Y-189280000D02*
X166410000Y-180050000D01*
%TO.N,GND*%
X229125000Y-143855000D02*
X226600000Y-141330000D01*
X229125000Y-150955000D02*
X229125000Y-143855000D01*
%TO.N,Col 4*%
X223200000Y-181243478D02*
X219700000Y-184743478D01*
X219950000Y-192005000D02*
X219950000Y-197905000D01*
X219700000Y-185743478D02*
X214738478Y-190705000D01*
X219733478Y-176700000D02*
X223200000Y-180166522D01*
X223200000Y-180166522D02*
X223200000Y-181243478D01*
X219950000Y-197905000D02*
X216900000Y-200955000D01*
X214738478Y-190705000D02*
X212150000Y-190705000D01*
X171434264Y-176700000D02*
X219733478Y-176700000D01*
X218650000Y-190705000D02*
X219950000Y-192005000D01*
X219700000Y-184743478D02*
X219700000Y-185743478D01*
X223400000Y-200955000D02*
X226900000Y-200955000D01*
%TO.N,Row 3*%
X201860000Y-198550000D02*
X201880000Y-198570000D01*
X199780000Y-197840000D02*
X201150000Y-197840000D01*
X201150000Y-197840000D02*
X201860000Y-198550000D01*
%TO.N,Col 1*%
X166850000Y-192005000D02*
X168150000Y-190705000D01*
X211900000Y-180705000D02*
X218400000Y-180705000D01*
X162815000Y-199655000D02*
X166850000Y-195620000D01*
X166850000Y-195620000D02*
X166850000Y-192005000D01*
X169500000Y-189355000D02*
X169500000Y-176860000D01*
X185950000Y-179405000D02*
X210600000Y-179405000D01*
X168150000Y-190705000D02*
X169500000Y-189355000D01*
X174650000Y-190705000D02*
X185950000Y-179405000D01*
X210600000Y-179405000D02*
X211900000Y-180705000D01*
X160700000Y-199655000D02*
X162815000Y-199655000D01*
X159400000Y-200955000D02*
X160700000Y-199655000D01*
%TO.N,Col 7*%
X200600000Y-182005000D02*
X201900000Y-180705000D01*
X200600000Y-186360000D02*
X200600000Y-182005000D01*
X199830000Y-187130000D02*
X200600000Y-186360000D01*
X201900000Y-180705000D02*
X208400000Y-180705000D01*
%TO.N,Row 2*%
X129990000Y-198130000D02*
X129740000Y-197880000D01*
X134870000Y-198130000D02*
X129990000Y-198130000D01*
%TO.N,Net-(D6-A)*%
X192150000Y-185205000D02*
X198650000Y-185205000D01*
%TO.N,Col 2*%
X156031739Y-184748261D02*
X156750000Y-185466522D01*
X156750000Y-185722500D02*
X158380000Y-187352500D01*
X169400000Y-200955000D02*
X175127321Y-200955000D01*
X198650000Y-190705000D02*
X205450000Y-183905000D01*
X158100000Y-201493478D02*
X158861522Y-202255000D01*
X218700000Y-183905000D02*
X221900000Y-180705000D01*
X160652500Y-197864022D02*
X158100000Y-200416522D01*
X155188478Y-183905000D02*
X156031739Y-184748261D01*
X158380000Y-187352500D02*
X160301029Y-187352500D01*
X205450000Y-183905000D02*
X218700000Y-183905000D01*
X160301029Y-187352500D02*
X160652500Y-187703971D01*
X144650000Y-180705000D02*
X147850000Y-183905000D01*
X160652500Y-187703971D02*
X160652500Y-197864022D01*
X191877321Y-190705000D02*
X192150000Y-190705000D01*
X156750000Y-185466522D02*
X156750000Y-185722500D01*
X185455333Y-200950000D02*
X185455333Y-197399667D01*
X158861522Y-202255000D02*
X161600000Y-202255000D01*
X147850000Y-183905000D02*
X155188478Y-183905000D01*
X175127321Y-200955000D02*
X175142034Y-200940287D01*
X158100000Y-200416522D02*
X158100000Y-201493478D01*
X185455333Y-197399667D02*
X192150000Y-190705000D01*
X156031739Y-184748261D02*
X164580000Y-176200000D01*
X161600000Y-202255000D02*
X162900000Y-200955000D01*
X181642034Y-200940287D02*
X191877321Y-190705000D01*
X198650000Y-190705000D02*
X192150000Y-190705000D01*
%TO.N,Col 5*%
X136850000Y-192005000D02*
X138150000Y-190705000D01*
X124650000Y-190705000D02*
X125950000Y-192005000D01*
X125950000Y-192005000D02*
X136850000Y-192005000D01*
%TO.N,Net-(D17-A)*%
X208650000Y-195205000D02*
X202150000Y-195205000D01*
%TO.N,I2c_Sda*%
X155850000Y-165450000D02*
X154750000Y-164350000D01*
X154750000Y-164350000D02*
X144408630Y-164350000D01*
X135960000Y-155901370D02*
X135960000Y-154770000D01*
X122900000Y-148461500D02*
X122358500Y-147920000D01*
X144408630Y-164350000D02*
X135960000Y-155901370D01*
%TO.N,SCL_SCK*%
X143770000Y-166550000D02*
X136020000Y-158800000D01*
X153310000Y-165450000D02*
X152210000Y-166550000D01*
X152210000Y-166550000D02*
X143770000Y-166550000D01*
%TO.N,Net-(D16-A)*%
X192150000Y-195205000D02*
X198650000Y-195205000D01*
%TD*%
M02*
