%TF.GenerationSoftware,KiCad,Pcbnew,10.0.3*%
%TF.CreationDate,2026-06-23T02:48:48+05:30*%
%TF.ProjectId,codeBuzz,636f6465-4275-47a7-9a2e-6b696361645f,rev?*%
%TF.SameCoordinates,Original*%
%TF.FileFunction,Paste,Top*%
%TF.FilePolarity,Positive*%
%FSLAX46Y46*%
G04 Gerber Fmt 4.6, Leading zero omitted, Abs format (unit mm)*
G04 Created by KiCad (PCBNEW 10.0.3) date 2026-06-23 02:48:48*
%MOMM*%
%LPD*%
G01*
G04 APERTURE LIST*
G04 Aperture macros list*
%AMRoundRect*
0 Rectangle with rounded corners*
0 $1 Rounding radius*
0 $2 $3 $4 $5 $6 $7 $8 $9 X,Y pos of 4 corners*
0 Add a 4 corners polygon primitive as box body*
4,1,4,$2,$3,$4,$5,$6,$7,$8,$9,$2,$3,0*
0 Add four circle primitives for the rounded corners*
1,1,$1+$1,$2,$3*
1,1,$1+$1,$4,$5*
1,1,$1+$1,$6,$7*
1,1,$1+$1,$8,$9*
0 Add four rect primitives between the rounded corners*
20,1,$1+$1,$2,$3,$4,$5,0*
20,1,$1+$1,$4,$5,$6,$7,0*
20,1,$1+$1,$6,$7,$8,$9,0*
20,1,$1+$1,$8,$9,$2,$3,0*%
G04 Aperture macros list end*
%ADD10C,0.010000*%
%ADD11RoundRect,0.250000X-0.400000X-0.600000X0.400000X-0.600000X0.400000X0.600000X-0.400000X0.600000X0*%
%ADD12RoundRect,0.150000X-0.587500X-0.150000X0.587500X-0.150000X0.587500X0.150000X-0.587500X0.150000X0*%
%ADD13RoundRect,0.250000X0.475000X-0.250000X0.475000X0.250000X-0.475000X0.250000X-0.475000X-0.250000X0*%
%ADD14O,2.500000X0.800000*%
%ADD15O,0.800000X2.500000*%
%ADD16RoundRect,0.250000X-1.000000X-0.650000X1.000000X-0.650000X1.000000X0.650000X-1.000000X0.650000X0*%
%ADD17RoundRect,0.260000X-0.540000X-0.390000X0.540000X-0.390000X0.540000X0.390000X-0.540000X0.390000X0*%
%ADD18RoundRect,0.032500X-0.387500X-0.097500X0.387500X-0.097500X0.387500X0.097500X-0.387500X0.097500X0*%
%ADD19RoundRect,0.032500X-0.097500X-0.387500X0.097500X-0.387500X0.097500X0.387500X-0.097500X0.387500X0*%
G04 APERTURE END LIST*
D10*
%TO.C,U7*%
X168950000Y-172350000D02*
X170490000Y-172350000D01*
X170490000Y-173890000D01*
X168950000Y-173890000D01*
X168950000Y-172350000D01*
G36*
X170490000Y-173890000D02*
G01*
X168950000Y-173890000D01*
X168950000Y-172350000D01*
X170490000Y-172350000D01*
X170490000Y-173890000D01*
G37*
%TD*%
D11*
%TO.C,D3*%
X150050000Y-187955000D03*
X153550000Y-187955000D03*
%TD*%
%TO.C,D32*%
X120050000Y-187955000D03*
X123550000Y-187955000D03*
%TD*%
%TO.C,D24*%
X164400000Y-208455000D03*
X167900000Y-208455000D03*
%TD*%
D12*
%TO.C,Q1*%
X240362500Y-157030000D03*
X240362500Y-158930000D03*
X242237500Y-157980000D03*
%TD*%
D13*
%TO.C,C5*%
X229500000Y-141280000D03*
X229500000Y-139380000D03*
%TD*%
D11*
%TO.C,D18*%
X213350000Y-197955000D03*
X216850000Y-197955000D03*
%TD*%
%TO.C,D29*%
X228400000Y-208455000D03*
X231900000Y-208455000D03*
%TD*%
%TO.C,D15*%
X169350000Y-197955000D03*
X172850000Y-197955000D03*
%TD*%
%TO.C,D35*%
X238400000Y-208455000D03*
X241900000Y-208455000D03*
%TD*%
%TO.C,D23*%
X154400000Y-208455000D03*
X157900000Y-208455000D03*
%TD*%
%TO.C,D19*%
X223350000Y-197955000D03*
X226850000Y-197955000D03*
%TD*%
%TO.C,D8*%
X214050000Y-187955000D03*
X217550000Y-187955000D03*
%TD*%
%TO.C,D6*%
X194050000Y-187955000D03*
X197550000Y-187955000D03*
%TD*%
D14*
%TO.C,GPS1*%
X234885000Y-134190000D03*
X234885000Y-136730000D03*
X234885000Y-139270000D03*
X234885000Y-141810000D03*
X234885000Y-144350000D03*
X234885000Y-146890000D03*
X250385000Y-146890000D03*
X250385000Y-144350000D03*
X250385000Y-141810000D03*
X250385000Y-139270000D03*
X250385000Y-136730000D03*
X250385000Y-134190000D03*
D15*
X238825000Y-147790000D03*
X240465000Y-147790000D03*
X244805000Y-147790000D03*
X246445000Y-147790000D03*
%TD*%
D11*
%TO.C,D5*%
X170050000Y-187955000D03*
X173550000Y-187955000D03*
%TD*%
%TO.C,D7*%
X204050000Y-187955000D03*
X207550000Y-187955000D03*
%TD*%
%TO.C,D21*%
X134400000Y-208455000D03*
X137900000Y-208455000D03*
%TD*%
%TO.C,D22*%
X144400000Y-208455000D03*
X147900000Y-208455000D03*
%TD*%
D16*
%TO.C,D36*%
X124600000Y-124800000D03*
X128600000Y-124800000D03*
%TD*%
D11*
%TO.C,D17*%
X203350000Y-197955000D03*
X206850000Y-197955000D03*
%TD*%
D17*
%TO.C,U6*%
X177500000Y-184405000D03*
X177500000Y-187205000D03*
X177500000Y-190905000D03*
X189300000Y-184405000D03*
X189300000Y-187205000D03*
X189300000Y-190905000D03*
%TD*%
D11*
%TO.C,D34*%
X244050000Y-187955000D03*
X247550000Y-187955000D03*
%TD*%
%TO.C,D31*%
X243350000Y-197955000D03*
X246850000Y-197955000D03*
%TD*%
%TO.C,D16*%
X193350000Y-197955000D03*
X196850000Y-197955000D03*
%TD*%
D18*
%TO.C,U7*%
X167785000Y-171870000D03*
X167785000Y-172370000D03*
X167785000Y-172870000D03*
X167785000Y-173370000D03*
X167785000Y-173870000D03*
X167785000Y-174370000D03*
D19*
X168470000Y-175055000D03*
X168970000Y-175055000D03*
X169470000Y-175055000D03*
X169970000Y-175055000D03*
X170470000Y-175055000D03*
X170970000Y-175055000D03*
D18*
X171655000Y-174370000D03*
X171655000Y-173870000D03*
X171655000Y-173370000D03*
X171655000Y-172870000D03*
X171655000Y-172370000D03*
X171655000Y-171870000D03*
D19*
X170970000Y-171185000D03*
X170470000Y-171185000D03*
X169970000Y-171185000D03*
X169470000Y-171185000D03*
X168970000Y-171185000D03*
X168470000Y-171185000D03*
%TD*%
D11*
%TO.C,D2*%
X140050000Y-187955000D03*
X143550000Y-187955000D03*
%TD*%
%TO.C,D14*%
X159750000Y-197805000D03*
X163250000Y-197805000D03*
%TD*%
%TO.C,D12*%
X139750000Y-197805000D03*
X143250000Y-197805000D03*
%TD*%
%TO.C,D10*%
X234050000Y-187955000D03*
X237550000Y-187955000D03*
%TD*%
%TO.C,D11*%
X129750000Y-197805000D03*
X133250000Y-197805000D03*
%TD*%
%TO.C,D1*%
X130050000Y-187955000D03*
X133550000Y-187955000D03*
%TD*%
%TO.C,D9*%
X224050000Y-187955000D03*
X227550000Y-187955000D03*
%TD*%
%TO.C,D28*%
X218400000Y-208455000D03*
X221900000Y-208455000D03*
%TD*%
%TO.C,D27*%
X208400000Y-208455000D03*
X211900000Y-208455000D03*
%TD*%
%TO.C,D33*%
X124400000Y-208455000D03*
X127900000Y-208455000D03*
%TD*%
%TO.C,D26*%
X198400000Y-208455000D03*
X201900000Y-208455000D03*
%TD*%
%TO.C,D30*%
X119750000Y-197805000D03*
X123250000Y-197805000D03*
%TD*%
%TO.C,D20*%
X233350000Y-197955000D03*
X236850000Y-197955000D03*
%TD*%
%TO.C,D13*%
X149750000Y-197805000D03*
X153250000Y-197805000D03*
%TD*%
%TO.C,D25*%
X182020000Y-208720000D03*
X185520000Y-208720000D03*
%TD*%
%TO.C,D4*%
X160050000Y-187955000D03*
X163550000Y-187955000D03*
%TD*%
M02*
