%TF.GenerationSoftware,KiCad,Pcbnew,10.0.3*%
%TF.CreationDate,2026-06-23T02:48:48+05:30*%
%TF.ProjectId,codeBuzz,636f6465-4275-47a7-9a2e-6b696361645f,rev?*%
%TF.SameCoordinates,Original*%
%TF.FileFunction,Legend,Bot*%
%TF.FilePolarity,Positive*%
%FSLAX46Y46*%
G04 Gerber Fmt 4.6, Leading zero omitted, Abs format (unit mm)*
G04 Created by KiCad (PCBNEW 10.0.3) date 2026-06-23 02:48:48*
%MOMM*%
%LPD*%
G01*
G04 APERTURE LIST*
%ADD10C,0.100000*%
%ADD11C,0.000000*%
G04 APERTURE END LIST*
D10*
X204366666Y-142133609D02*
X204223809Y-142181228D01*
X204223809Y-142181228D02*
X204176190Y-142228847D01*
X204176190Y-142228847D02*
X204128571Y-142324085D01*
X204128571Y-142324085D02*
X204128571Y-142466942D01*
X204128571Y-142466942D02*
X204176190Y-142562180D01*
X204176190Y-142562180D02*
X204223809Y-142609800D01*
X204223809Y-142609800D02*
X204319047Y-142657419D01*
X204319047Y-142657419D02*
X204699999Y-142657419D01*
X204699999Y-142657419D02*
X204699999Y-141657419D01*
X204699999Y-141657419D02*
X204366666Y-141657419D01*
X204366666Y-141657419D02*
X204271428Y-141705038D01*
X204271428Y-141705038D02*
X204223809Y-141752657D01*
X204223809Y-141752657D02*
X204176190Y-141847895D01*
X204176190Y-141847895D02*
X204176190Y-141943133D01*
X204176190Y-141943133D02*
X204223809Y-142038371D01*
X204223809Y-142038371D02*
X204271428Y-142085990D01*
X204271428Y-142085990D02*
X204366666Y-142133609D01*
X204366666Y-142133609D02*
X204699999Y-142133609D01*
X203747618Y-142371704D02*
X203271428Y-142371704D01*
X203842856Y-142657419D02*
X203509523Y-141657419D01*
X203509523Y-141657419D02*
X203176190Y-142657419D01*
X202985713Y-141657419D02*
X202414285Y-141657419D01*
X202699999Y-142657419D02*
X202699999Y-141657419D01*
X202223808Y-141657419D02*
X201652380Y-141657419D01*
X201938094Y-142657419D02*
X201938094Y-141657419D01*
X200747618Y-142657419D02*
X201080951Y-142181228D01*
X201319046Y-142657419D02*
X201319046Y-141657419D01*
X201319046Y-141657419D02*
X200938094Y-141657419D01*
X200938094Y-141657419D02*
X200842856Y-141705038D01*
X200842856Y-141705038D02*
X200795237Y-141752657D01*
X200795237Y-141752657D02*
X200747618Y-141847895D01*
X200747618Y-141847895D02*
X200747618Y-141990752D01*
X200747618Y-141990752D02*
X200795237Y-142085990D01*
X200795237Y-142085990D02*
X200842856Y-142133609D01*
X200842856Y-142133609D02*
X200938094Y-142181228D01*
X200938094Y-142181228D02*
X201319046Y-142181228D01*
X200319046Y-142133609D02*
X199985713Y-142133609D01*
X199842856Y-142657419D02*
X200319046Y-142657419D01*
X200319046Y-142657419D02*
X200319046Y-141657419D01*
X200319046Y-141657419D02*
X199842856Y-141657419D01*
X199223808Y-142181228D02*
X199223808Y-142657419D01*
X199557141Y-141657419D02*
X199223808Y-142181228D01*
X199223808Y-142181228D02*
X198890475Y-141657419D01*
X198509522Y-142609800D02*
X198509522Y-142657419D01*
X198509522Y-142657419D02*
X198557141Y-142752657D01*
X198557141Y-142752657D02*
X198604760Y-142800276D01*
X198080951Y-142657419D02*
X198080951Y-141657419D01*
X198080951Y-142133609D02*
X197509523Y-142133609D01*
X197509523Y-142657419D02*
X197509523Y-141657419D01*
X197033332Y-142133609D02*
X196699999Y-142133609D01*
X196557142Y-142657419D02*
X197033332Y-142657419D01*
X197033332Y-142657419D02*
X197033332Y-141657419D01*
X197033332Y-141657419D02*
X196557142Y-141657419D01*
X195557142Y-142657419D02*
X195890475Y-142181228D01*
X196128570Y-142657419D02*
X196128570Y-141657419D01*
X196128570Y-141657419D02*
X195747618Y-141657419D01*
X195747618Y-141657419D02*
X195652380Y-141705038D01*
X195652380Y-141705038D02*
X195604761Y-141752657D01*
X195604761Y-141752657D02*
X195557142Y-141847895D01*
X195557142Y-141847895D02*
X195557142Y-141990752D01*
X195557142Y-141990752D02*
X195604761Y-142085990D01*
X195604761Y-142085990D02*
X195652380Y-142133609D01*
X195652380Y-142133609D02*
X195747618Y-142181228D01*
X195747618Y-142181228D02*
X196128570Y-142181228D01*
X195128570Y-142133609D02*
X194795237Y-142133609D01*
X194652380Y-142657419D02*
X195128570Y-142657419D01*
X195128570Y-142657419D02*
X195128570Y-141657419D01*
X195128570Y-141657419D02*
X194652380Y-141657419D01*
D11*
%TO.C,.*%
G36*
X158092000Y-129720000D02*
G01*
X158072462Y-129739538D01*
X158052923Y-129720000D01*
X158072462Y-129700461D01*
X158092000Y-129720000D01*
G37*
G36*
X158443692Y-129172923D02*
G01*
X158424154Y-129192461D01*
X158404616Y-129172923D01*
X158424154Y-129153384D01*
X158443692Y-129172923D01*
G37*
G36*
X158521846Y-129094769D02*
G01*
X158502308Y-129114308D01*
X158482769Y-129094769D01*
X158502308Y-129075231D01*
X158521846Y-129094769D01*
G37*
G36*
X158600000Y-128977538D02*
G01*
X158580462Y-128997077D01*
X158560923Y-128977538D01*
X158580462Y-128958000D01*
X158600000Y-128977538D01*
G37*
G36*
X158717231Y-128899384D02*
G01*
X158697692Y-128918923D01*
X158678154Y-128899384D01*
X158697692Y-128879846D01*
X158717231Y-128899384D01*
G37*
G36*
X161648000Y-129094769D02*
G01*
X161628462Y-129114308D01*
X161608923Y-129094769D01*
X161628462Y-129075231D01*
X161648000Y-129094769D01*
G37*
G36*
X161726154Y-129133846D02*
G01*
X161706616Y-129153384D01*
X161687077Y-129133846D01*
X161706616Y-129114308D01*
X161726154Y-129133846D01*
G37*
G36*
X161843385Y-129133846D02*
G01*
X161823846Y-129153384D01*
X161804308Y-129133846D01*
X161823846Y-129114308D01*
X161843385Y-129133846D01*
G37*
G36*
X161882462Y-130267077D02*
G01*
X161862923Y-130286615D01*
X161843385Y-130267077D01*
X161862923Y-130247538D01*
X161882462Y-130267077D01*
G37*
G36*
X162116923Y-129133846D02*
G01*
X162097385Y-129153384D01*
X162077846Y-129133846D01*
X162097385Y-129114308D01*
X162116923Y-129133846D01*
G37*
G36*
X162351385Y-129055692D02*
G01*
X162331846Y-129075231D01*
X162312308Y-129055692D01*
X162331846Y-129036154D01*
X162351385Y-129055692D01*
G37*
G36*
X171117224Y-132146732D02*
G01*
X171079402Y-132963762D01*
X171021968Y-133747926D01*
X170944956Y-134485037D01*
X170848400Y-135160905D01*
X170823793Y-135304355D01*
X170676179Y-136012617D01*
X170492750Y-136665301D01*
X170271059Y-137264166D01*
X170008662Y-137810971D01*
X169703114Y-138307473D01*
X169351970Y-138755430D01*
X168952784Y-139156601D01*
X168503112Y-139512744D01*
X168000509Y-139825617D01*
X167442529Y-140096977D01*
X166826728Y-140328584D01*
X166150660Y-140522194D01*
X165411880Y-140679567D01*
X164607943Y-140802461D01*
X163736405Y-140892633D01*
X162794820Y-140951842D01*
X162133263Y-140974674D01*
X161433963Y-140985115D01*
X160725893Y-140982988D01*
X160026288Y-140968647D01*
X159352384Y-140942449D01*
X158721414Y-140904750D01*
X158150616Y-140855906D01*
X158106696Y-140851402D01*
X157272496Y-140746389D01*
X156507483Y-140610306D01*
X155808441Y-140441211D01*
X155172159Y-140237163D01*
X154595421Y-139996221D01*
X154075014Y-139716443D01*
X153607725Y-139395888D01*
X153190339Y-139032614D01*
X152819643Y-138624680D01*
X152492423Y-138170144D01*
X152205465Y-137667066D01*
X151955555Y-137113502D01*
X151793541Y-136662279D01*
X151780710Y-136618425D01*
X157776267Y-136618425D01*
X158764518Y-136607982D01*
X159752769Y-136597538D01*
X159775370Y-133744923D01*
X159776839Y-133559247D01*
X159781091Y-133031320D01*
X159785140Y-132573729D01*
X159789348Y-132180563D01*
X159794077Y-131845909D01*
X159799689Y-131563853D01*
X159806544Y-131328484D01*
X159815005Y-131133889D01*
X159825433Y-130974155D01*
X159838189Y-130843369D01*
X159853636Y-130735619D01*
X159872135Y-130644992D01*
X159894047Y-130565575D01*
X159919735Y-130491456D01*
X159949559Y-130416723D01*
X159983881Y-130335461D01*
X160007001Y-130285099D01*
X160055492Y-130202146D01*
X160091472Y-130169384D01*
X160104060Y-130166148D01*
X160103863Y-130129339D01*
X160098343Y-130111782D01*
X160130865Y-130100032D01*
X160155425Y-130097373D01*
X160169590Y-130052154D01*
X160167146Y-130025881D01*
X160185957Y-130022931D01*
X160215558Y-130029939D01*
X160277137Y-129999214D01*
X160286682Y-129993538D01*
X160319385Y-129993538D01*
X160338923Y-130013077D01*
X160358462Y-129993538D01*
X160338923Y-129974000D01*
X160319385Y-129993538D01*
X160286682Y-129993538D01*
X160351227Y-129955154D01*
X160503437Y-129907893D01*
X160692532Y-129880372D01*
X160895121Y-129877209D01*
X161051409Y-129887440D01*
X161160191Y-129902072D01*
X161241336Y-129926079D01*
X161320478Y-129964735D01*
X161379146Y-129988145D01*
X161427939Y-129985651D01*
X161438067Y-129979768D01*
X161444951Y-129993538D01*
X161452616Y-130008870D01*
X161455323Y-130026434D01*
X161484578Y-130037012D01*
X161493782Y-130035215D01*
X161551181Y-130060510D01*
X161630344Y-130122629D01*
X161654019Y-130143697D01*
X161730168Y-130199977D01*
X161777133Y-130217262D01*
X161787028Y-130215694D01*
X161788595Y-130241348D01*
X161791228Y-130280423D01*
X161833833Y-130335388D01*
X161892215Y-130375320D01*
X161937735Y-130374624D01*
X161947751Y-130366530D01*
X161954911Y-130384308D01*
X161955857Y-130417490D01*
X161985997Y-130493159D01*
X162036429Y-130574255D01*
X162090143Y-130635016D01*
X162130131Y-130649683D01*
X162144415Y-130643610D01*
X162142373Y-130667820D01*
X162134611Y-130685638D01*
X162134779Y-130749881D01*
X162160530Y-130803167D01*
X162198724Y-130811900D01*
X162213826Y-130810195D01*
X162209987Y-130851201D01*
X162203278Y-130883008D01*
X162223460Y-130911846D01*
X162237042Y-130915160D01*
X162264787Y-130960692D01*
X162267850Y-130976955D01*
X162290175Y-131059484D01*
X162328892Y-131187721D01*
X162378061Y-131341692D01*
X162486755Y-131673846D01*
X162497245Y-134057538D01*
X162497317Y-134073820D01*
X162499534Y-134499863D01*
X162502254Y-134904006D01*
X162505388Y-135279218D01*
X162508849Y-135618467D01*
X162512550Y-135914721D01*
X162516402Y-136160948D01*
X162520319Y-136350117D01*
X162524213Y-136475196D01*
X162527997Y-136529154D01*
X162548258Y-136617077D01*
X163498386Y-136617077D01*
X163689215Y-136616548D01*
X163936585Y-136614163D01*
X164149806Y-136610125D01*
X164317876Y-136604727D01*
X164429796Y-136598263D01*
X164474564Y-136591025D01*
X164476208Y-136582532D01*
X164479893Y-136509208D01*
X164483260Y-136365373D01*
X164486313Y-136156337D01*
X164489055Y-135887409D01*
X164491489Y-135563899D01*
X164493620Y-135191116D01*
X164495450Y-134774369D01*
X164496984Y-134318969D01*
X164498224Y-133830224D01*
X164499175Y-133313444D01*
X164499840Y-132773939D01*
X164500223Y-132217017D01*
X164500326Y-131647988D01*
X164500155Y-131072162D01*
X164499711Y-130494848D01*
X164498999Y-129921356D01*
X164498023Y-129356994D01*
X164496785Y-128807073D01*
X164495290Y-128276902D01*
X164493541Y-127771789D01*
X164491541Y-127297046D01*
X164489295Y-126857980D01*
X164486805Y-126459903D01*
X164484075Y-126108122D01*
X164481109Y-125807947D01*
X164477911Y-125564688D01*
X164474483Y-125383655D01*
X164470830Y-125270156D01*
X164466955Y-125229501D01*
X164442796Y-125222448D01*
X164349912Y-125202627D01*
X164198508Y-125173347D01*
X163999601Y-125136668D01*
X163764207Y-125094649D01*
X163503342Y-125049351D01*
X163319002Y-125018041D01*
X163057049Y-124975132D01*
X162858929Y-124945470D01*
X162716460Y-124928134D01*
X162621459Y-124922200D01*
X162565746Y-124926745D01*
X162541139Y-124940848D01*
X162534843Y-124986218D01*
X162528724Y-125102449D01*
X162523153Y-125281329D01*
X162518266Y-125514970D01*
X162514199Y-125795480D01*
X162511091Y-126114970D01*
X162509076Y-126465551D01*
X162508291Y-126839332D01*
X162508199Y-126996363D01*
X162507402Y-127416953D01*
X162505679Y-127767990D01*
X162502848Y-128055922D01*
X162498727Y-128287194D01*
X162493134Y-128468255D01*
X162485887Y-128605549D01*
X162476804Y-128705523D01*
X162465703Y-128774624D01*
X162452403Y-128819299D01*
X162444593Y-128838970D01*
X162419685Y-128929013D01*
X162423095Y-128980616D01*
X162430054Y-128991099D01*
X162404824Y-128984336D01*
X162398288Y-128981821D01*
X162334535Y-128994708D01*
X162250386Y-129045736D01*
X162228731Y-129062287D01*
X162175707Y-129095918D01*
X162168393Y-129086792D01*
X162174293Y-129074918D01*
X162157212Y-129058669D01*
X162077877Y-129075222D01*
X162051630Y-129082825D01*
X161986115Y-129100428D01*
X161935496Y-129104387D01*
X161869269Y-129094112D01*
X161756927Y-129069014D01*
X161721914Y-129060142D01*
X161601025Y-129016060D01*
X161514860Y-128965507D01*
X161514549Y-128965235D01*
X161468560Y-128932292D01*
X161471015Y-128953524D01*
X161475171Y-128964027D01*
X161450591Y-128962419D01*
X161383755Y-128919615D01*
X161372784Y-128911725D01*
X161279692Y-128863074D01*
X161215831Y-128861743D01*
X161192918Y-128872563D01*
X161190537Y-128853841D01*
X161191395Y-128851805D01*
X161162833Y-128820756D01*
X161077529Y-128777936D01*
X160952344Y-128731972D01*
X160618716Y-128644055D01*
X160196352Y-128582565D01*
X159779747Y-128573821D01*
X159382534Y-128617070D01*
X159018346Y-128711557D01*
X158700815Y-128856528D01*
X158640692Y-128895790D01*
X158532910Y-128980547D01*
X158427902Y-129076839D01*
X158340383Y-129169770D01*
X158285068Y-129244440D01*
X158276671Y-129285953D01*
X158282164Y-129293589D01*
X158260265Y-129309692D01*
X158255342Y-129310699D01*
X158212024Y-129353229D01*
X158153090Y-129442234D01*
X158090196Y-129555448D01*
X158034999Y-129670608D01*
X157999154Y-129765448D01*
X157994316Y-129817705D01*
X158000256Y-129832967D01*
X157974769Y-129856769D01*
X157960368Y-129859298D01*
X157953562Y-129893146D01*
X157958911Y-129908964D01*
X157933666Y-129955714D01*
X157917312Y-129972414D01*
X157911783Y-130035316D01*
X157917202Y-130060667D01*
X157897395Y-130110287D01*
X157880386Y-130129704D01*
X157863695Y-130199462D01*
X157857541Y-130263136D01*
X157833543Y-130364769D01*
X157832151Y-130372036D01*
X157827029Y-130446227D01*
X157821863Y-130590731D01*
X157816739Y-130799403D01*
X157811742Y-131066094D01*
X157806958Y-131384659D01*
X157802473Y-131748950D01*
X157798373Y-132152820D01*
X157794743Y-132590124D01*
X157791669Y-133054714D01*
X157789237Y-133540443D01*
X157776267Y-136618425D01*
X151780710Y-136618425D01*
X151644933Y-136154350D01*
X151515815Y-135612327D01*
X151411965Y-135058057D01*
X151339076Y-134548160D01*
X151263493Y-133846758D01*
X151206328Y-133094495D01*
X151167581Y-132305375D01*
X151147253Y-131493405D01*
X151145343Y-130672589D01*
X151161850Y-129856932D01*
X151196776Y-129060439D01*
X151250119Y-128297116D01*
X151321880Y-127580968D01*
X151412058Y-126926000D01*
X151445358Y-126730396D01*
X151533266Y-126288944D01*
X151636330Y-125852601D01*
X151748554Y-125445699D01*
X151863942Y-125092568D01*
X151957591Y-124847253D01*
X152231779Y-124253669D01*
X152554085Y-123716929D01*
X152926705Y-123235226D01*
X153351832Y-122806749D01*
X153831660Y-122429688D01*
X154368385Y-122102234D01*
X154964201Y-121822577D01*
X155621301Y-121588906D01*
X156341881Y-121399412D01*
X156406885Y-121385149D01*
X156988253Y-121275731D01*
X157635335Y-121183226D01*
X158338548Y-121108242D01*
X159088309Y-121051387D01*
X159875033Y-121013270D01*
X160689138Y-120994498D01*
X161521039Y-120995680D01*
X162361154Y-121017424D01*
X162390643Y-121018564D01*
X163208164Y-121058821D01*
X163955132Y-121113708D01*
X164637768Y-121184366D01*
X165262294Y-121271938D01*
X165834931Y-121377566D01*
X166361899Y-121502392D01*
X166849420Y-121647560D01*
X167303716Y-121814212D01*
X167731006Y-122003489D01*
X167895585Y-122086354D01*
X168414913Y-122397525D01*
X168884317Y-122761056D01*
X169304938Y-123178733D01*
X169677914Y-123652343D01*
X170004387Y-124183674D01*
X170285496Y-124774512D01*
X170522380Y-125426645D01*
X170716180Y-126141860D01*
X170868035Y-126921943D01*
X170930412Y-127348889D01*
X171010972Y-128065169D01*
X171071717Y-128833709D01*
X171112681Y-129640324D01*
X171133897Y-130470825D01*
X171135401Y-131311023D01*
X171128072Y-131647988D01*
X171117224Y-132146732D01*
G37*
%TO.C,BATTREY\u002CHERE*%
D10*
X201700000Y-118700000D02*
X197700000Y-118700000D01*
X174700000Y-118700000D02*
X224700000Y-118700000D01*
X224700000Y-166700000D01*
X174700000Y-166700000D01*
X174700000Y-118700000D01*
%TD*%
M02*
