M48
; DRILL file KiCad 10.0.3 date 2026-06-23T02:48:45
; FORMAT={-:-/ absolute / metric / decimal}
; #@! TF.CreationDate,2026-06-23T02:48:45+05:30
; #@! TF.GenerationSoftware,Kicad,Pcbnew,10.0.3
; #@! TF.FileFunction,Plated,1,4,PTH
FMAT,2
METRIC
; #@! TA.AperFunction,Plated,PTH,ViaDrill
T1C0.300
; #@! TA.AperFunction,Plated,PTH,ComponentDrill
T2C0.600
; #@! TA.AperFunction,Plated,PTH,ComponentDrill
T3C0.700
; #@! TA.AperFunction,Plated,PTH,ComponentDrill
T4C0.800
; #@! TA.AperFunction,Plated,PTH,ComponentDrill
T5C0.889
; #@! TA.AperFunction,Plated,PTH,ComponentDrill
T6C1.000
; #@! TA.AperFunction,Plated,PTH,ComponentDrill
T7C1.100
%
G90
G05
T1
X119.45Y-155.91
X129.74Y-197.88
X130.925Y-208.455
X134.87Y-198.13
X150.112Y-187.952
X158.98Y-154.78
X160.052Y-187.952
X164.58Y-176.2
X165.935Y-174.385
X166.41Y-189.28
X168.73Y-177.73
X169.5Y-176.86
X170.23Y-187.92
X170.295Y-169.645
X170.834Y-177.346
X171.434Y-176.7
X173.69Y-174.8
X179.27Y-190.24
X180.956Y-193.984
X183.665Y-195.845
X194.05Y-187.955
X199.78Y-197.84
X199.83Y-187.13
X200.04Y-187.955
X201.86Y-198.55
X226.6Y-141.33
T2
X174.148Y-170.605
X176.148Y-170.605
X227.125Y-150.955
X229.125Y-150.955
T3
X132.8Y-133.69
X132.8Y-141.31
T4
X120.72Y-154.77
X120.78Y-158.8
X135.96Y-154.77
X136.02Y-158.8
X149.13Y-172.255
X164.37Y-172.255
T5
X112.198Y-132.68
X112.198Y-147.92
X114.738Y-132.68
X114.738Y-147.92
X117.278Y-132.68
X117.278Y-147.92
X119.819Y-132.68
X119.819Y-147.92
X122.358Y-132.68
X122.358Y-147.92
X124.898Y-132.68
X124.898Y-147.92
X127.438Y-132.68
X127.438Y-147.92
T6
X112.62Y-124.6
X115.16Y-124.6
X117.7Y-124.6
X120.24Y-124.6
X143.175Y-127.91
X143.175Y-130.45
X143.175Y-132.99
X143.175Y-135.53
X143.175Y-138.07
X143.175Y-140.61
X143.175Y-143.15
X143.175Y-145.69
X143.175Y-148.23
X143.175Y-150.77
X143.175Y-153.31
X143.175Y-155.85
X143.175Y-158.39
X143.175Y-160.93
X148.23Y-147.45
X148.23Y-149.99
X148.23Y-165.45
X150.77Y-147.45
X150.77Y-149.99
X150.77Y-165.45
X153.31Y-147.45
X153.31Y-149.99
X153.31Y-165.45
X155.85Y-147.45
X155.85Y-149.99
X155.85Y-165.45
X158.39Y-147.45
X158.39Y-149.99
X158.39Y-165.45
X160.93Y-147.45
X160.93Y-149.99
X160.93Y-165.45
X163.47Y-147.45
X163.47Y-149.99
X163.47Y-165.45
X166.01Y-147.45
X166.01Y-149.99
X166.01Y-165.45
X168.55Y-147.45
X168.55Y-149.99
X168.55Y-165.45
X171.09Y-147.45
X171.09Y-149.99
X171.09Y-165.45
X247.325Y-161.68
X254.925Y-161.68
T7
X118.15Y-180.705
X118.15Y-185.205
X118.15Y-190.705
X118.15Y-195.205
X122.9Y-200.955
X122.9Y-205.455
X124.65Y-180.705
X124.65Y-185.205
X124.65Y-190.705
X124.65Y-195.205
X128.15Y-180.705
X128.15Y-185.205
X128.15Y-190.705
X128.15Y-195.205
X129.4Y-200.955
X129.4Y-205.455
X132.9Y-200.955
X132.9Y-205.455
X134.65Y-180.705
X134.65Y-185.205
X134.65Y-190.705
X134.65Y-195.205
X138.15Y-180.705
X138.15Y-185.205
X138.15Y-190.705
X138.15Y-195.205
X139.4Y-200.955
X139.4Y-205.455
X142.9Y-200.955
X142.9Y-205.455
X144.65Y-180.705
X144.65Y-185.205
X144.65Y-190.705
X144.65Y-195.205
X148.15Y-180.705
X148.15Y-185.205
X148.15Y-190.705
X148.15Y-195.205
X149.4Y-200.955
X149.4Y-205.455
X152.9Y-200.955
X152.9Y-205.455
X154.65Y-180.705
X154.65Y-185.205
X154.65Y-190.705
X154.65Y-195.205
X158.15Y-180.705
X158.15Y-185.205
X158.15Y-190.705
X158.15Y-195.205
X159.4Y-200.955
X159.4Y-205.455
X162.9Y-200.955
X162.9Y-205.455
X164.65Y-180.705
X164.65Y-185.205
X164.65Y-190.705
X164.65Y-195.205
X168.15Y-180.705
X168.15Y-185.205
X168.15Y-190.705
X168.15Y-195.205
X169.4Y-200.955
X169.4Y-205.455
X174.65Y-180.705
X174.65Y-185.205
X174.65Y-190.705
X174.65Y-195.205
X175.142Y-200.94
X175.142Y-205.44
X181.642Y-200.94
X181.642Y-205.44
X185.455Y-200.95
X185.455Y-205.45
X191.955Y-200.95
X191.955Y-205.45
X192.15Y-180.705
X192.15Y-185.205
X192.15Y-190.705
X192.15Y-195.205
X196.9Y-200.955
X196.9Y-205.455
X198.65Y-180.705
X198.65Y-185.205
X198.65Y-190.705
X198.65Y-195.205
X201.9Y-180.705
X201.9Y-185.205
X202.15Y-190.705
X202.15Y-195.205
X203.4Y-200.955
X203.4Y-205.455
X206.9Y-200.955
X206.9Y-205.455
X208.4Y-180.705
X208.4Y-185.205
X208.65Y-190.705
X208.65Y-195.205
X211.9Y-180.705
X211.9Y-185.205
X212.15Y-190.705
X212.15Y-195.205
X213.4Y-200.955
X213.4Y-205.455
X216.9Y-200.955
X216.9Y-205.455
X218.4Y-180.705
X218.4Y-185.205
X218.65Y-190.705
X218.65Y-195.205
X221.9Y-180.705
X221.9Y-185.205
X222.15Y-190.705
X222.15Y-195.205
X223.4Y-200.955
X223.4Y-205.455
X226.9Y-200.955
X226.9Y-205.455
X228.4Y-180.705
X228.4Y-185.205
X228.65Y-190.705
X228.65Y-195.205
X231.9Y-180.705
X231.9Y-185.205
X232.15Y-190.705
X232.15Y-195.205
X233.4Y-200.955
X233.4Y-205.455
X236.9Y-200.955
X236.9Y-205.455
X238.4Y-180.705
X238.4Y-185.205
X238.65Y-190.705
X238.65Y-195.205
X241.9Y-180.705
X241.9Y-185.205
X242.15Y-190.705
X242.15Y-195.205
X243.4Y-200.955
X243.4Y-205.455
X248.4Y-180.705
X248.4Y-185.205
X248.65Y-190.705
X248.65Y-195.205
M30
